<svg width="221" height="80" viewBox="0 0 221 80" fill="none" xmlns="http://www.w3.org/2000/svg">
<path d="M3.81747 27.8736H22.8604V32.1793L9.98757 47.8931L9.09979 48.6033H22.8604V52.9091H3.81747V48.6033L16.6903 32.8896L17.5781 32.1793H3.81747V27.8736Z" fill="white"/>
<g clip-path="url(#clip0_3_10)">
<path d="M111.818 40C111.818 50.6087 107.604 60.7828 100.102 68.2843C92.601 75.7857 82.4268 80 71.8182 80C61.2095 80 51.0354 75.7857 43.5339 68.2843C36.0325 60.7828 31.8182 50.6087 31.8182 40C31.8182 39.1159 32.1694 38.2681 32.7945 37.643C33.4196 37.0179 34.2675 36.6667 35.1515 36.6667C36.0356 36.6667 36.8834 37.0179 37.5085 37.643C38.1337 38.2681 38.4849 39.1159 38.4849 40C38.4849 46.5927 40.4398 53.0374 44.1025 58.519C47.7652 64.0006 52.9712 68.2731 59.0621 70.796C65.1529 73.3189 71.8552 73.979 78.3212 72.6928C84.7872 71.4067 90.7267 68.232 95.3884 63.5702C100.05 58.9085 103.225 52.969 104.511 46.503C105.797 40.037 105.137 33.3348 102.614 27.2439C100.091 21.153 95.8188 15.9471 90.3372 12.2843C84.8556 8.62163 78.4109 6.66667 71.8182 6.66667C70.9341 6.66667 70.0863 6.31548 69.4612 5.69036C68.836 5.06524 68.4849 4.21739 68.4849 3.33333C68.4849 2.44928 68.836 1.60143 69.4612 0.976311C70.0863 0.35119 70.9341 0 71.8182 0C82.4233 0.0114703 92.5908 4.22943 100.09 11.7284C107.589 19.2274 111.807 29.3949 111.818 40ZM37.9082 29.28C38.5675 29.28 39.2119 29.0845 39.7601 28.7182C40.3082 28.352 40.7355 27.8314 40.9878 27.2223C41.2401 26.6132 41.3061 25.943 41.1775 25.2964C41.0489 24.6498 40.7314 24.0558 40.2652 23.5896C39.799 23.1235 39.2051 22.806 38.5585 22.6774C37.9119 22.5488 37.2417 22.6148 36.6326 22.8671C36.0235 23.1194 35.5029 23.5466 35.1366 24.0948C34.7703 24.6429 34.5749 25.2874 34.5749 25.9467C34.5749 26.8307 34.926 27.6786 35.5512 28.3037C36.1763 28.9288 37.0241 29.28 37.9082 29.28ZM45.8882 17.3567C46.5475 17.3567 47.1919 17.1612 47.7401 16.7949C48.2882 16.4286 48.7155 15.908 48.9678 15.2989C49.2201 14.6899 49.2861 14.0196 49.1575 13.373C49.0289 12.7264 48.7114 12.1325 48.2452 11.6663C47.779 11.2001 47.1851 10.8827 46.5385 10.754C45.8919 10.6254 45.2217 10.6914 44.6126 10.9437C44.0035 11.196 43.4829 11.6233 43.1166 12.1714C42.7503 12.7196 42.5549 13.3641 42.5549 14.0233C42.5549 14.9074 42.906 15.7552 43.5312 16.3804C44.1563 17.0055 45.0041 17.3567 45.8882 17.3567ZM57.7482 9.47C58.4075 9.47 59.0519 9.2745 59.6001 8.90823C60.1482 8.54196 60.5755 8.02137 60.8278 7.41228C61.0801 6.80319 61.1461 6.13297 61.0175 5.48637C60.8889 4.83976 60.5714 4.24582 60.1052 3.77964C59.639 3.31347 59.0451 2.996 58.3985 2.86738C57.7519 2.73877 57.0817 2.80478 56.4726 3.05707C55.8635 3.30936 55.3429 3.7366 54.9766 4.28477C54.6103 4.83293 54.4149 5.4774 54.4149 6.13667C54.4149 7.02072 54.766 7.86857 55.3912 8.49369C56.0163 9.11881 56.8641 9.47 57.7482 9.47Z" fill="white"/>
<path d="M111.818 40C111.818 50.6087 107.604 60.7828 100.102 68.2843C92.601 75.7857 82.4268 80 71.8182 80C61.2095 80 51.0354 75.7857 43.5339 68.2843C36.0325 60.7828 31.8182 50.6087 31.8182 40C31.8182 39.1159 32.1694 38.2681 32.7945 37.643C33.4196 37.0179 34.2675 36.6667 35.1515 36.6667C36.0356 36.6667 36.8834 37.0179 37.5085 37.643C38.1337 38.2681 38.4849 39.1159 38.4849 40C38.4849 46.5927 40.4398 53.0374 44.1025 58.519C47.7652 64.0006 52.9712 68.2731 59.0621 70.796C65.1529 73.3189 71.8552 73.979 78.3212 72.6928C84.7872 71.4067 90.7267 68.232 95.3884 63.5702C100.05 58.9085 103.225 52.969 104.511 46.503C105.797 40.037 105.137 33.3348 102.614 27.2439C100.091 21.153 95.8188 15.9471 90.3372 12.2843C84.8556 8.62163 78.4109 6.66667 71.8182 6.66667C70.9341 6.66667 70.0863 6.31548 69.4612 5.69036C68.836 5.06524 68.4849 4.21739 68.4849 3.33333C68.4849 2.44928 68.836 1.60143 69.4612 0.976311C70.0863 0.35119 70.9341 0 71.8182 0C82.4233 0.0114703 92.5908 4.22943 100.09 11.7284C107.589 19.2274 111.807 29.3949 111.818 40ZM37.9082 29.28C38.5675 29.28 39.2119 29.0845 39.7601 28.7182C40.3082 28.352 40.7355 27.8314 40.9878 27.2223C41.2401 26.6132 41.3061 25.943 41.1775 25.2964C41.0489 24.6498 40.7314 24.0558 40.2652 23.5896C39.799 23.1235 39.2051 22.806 38.5585 22.6774C37.9119 22.5488 37.2417 22.6148 36.6326 22.8671C36.0235 23.1194 35.5029 23.5466 35.1366 24.0948C34.7703 24.6429 34.5749 25.2874 34.5749 25.9467C34.5749 26.8307 34.926 27.6786 35.5512 28.3037C36.1763 28.9288 37.0241 29.28 37.9082 29.28ZM45.8882 17.3567C46.5475 17.3567 47.1919 17.1612 47.7401 16.7949C48.2882 16.4286 48.7155 15.908 48.9678 15.2989C49.2201 14.6899 49.2861 14.0196 49.1575 13.373C49.0289 12.7264 48.7114 12.1325 48.2452 11.6663C47.779 11.2001 47.1851 10.8827 46.5385 10.754C45.8919 10.6254 45.2217 10.6914 44.6126 10.9437C44.0035 11.196 43.4829 11.6233 43.1166 12.1714C42.7503 12.7196 42.5549 13.3641 42.5549 14.0233C42.5549 14.9074 42.906 15.7552 43.5312 16.3804C44.1563 17.0055 45.0041 17.3567 45.8882 17.3567ZM57.7482 9.47C58.4075 9.47 59.0519 9.2745 59.6001 8.90823C60.1482 8.54196 60.5755 8.02137 60.8278 7.41228C61.0801 6.80319 61.1461 6.13297 61.0175 5.48637C60.8889 4.83976 60.5714 4.24582 60.1052 3.77964C59.639 3.31347 59.0451 2.996 58.3985 2.86738C57.7519 2.73877 57.0817 2.80478 56.4726 3.05707C55.8635 3.30936 55.3429 3.7366 54.9766 4.28477C54.6103 4.83293 54.4149 5.4774 54.4149 6.13667C54.4149 7.02072 54.766 7.86857 55.3912 8.49369C56.0163 9.11881 56.8641 9.47 57.7482 9.47Z" fill="url(#paint0_linear_3_10)"/>
<path d="M111.818 40C111.818 50.6087 107.604 60.7828 100.102 68.2843C92.601 75.7857 82.4268 80 71.8182 80C61.2095 80 51.0354 75.7857 43.5339 68.2843C36.0325 60.7828 31.8182 50.6087 31.8182 40C31.8182 39.1159 32.1694 38.2681 32.7945 37.643C33.4196 37.0179 34.2675 36.6667 35.1515 36.6667C36.0356 36.6667 36.8834 37.0179 37.5085 37.643C38.1337 38.2681 38.4849 39.1159 38.4849 40C38.4849 46.5927 40.4398 53.0374 44.1025 58.519C47.7652 64.0006 52.9712 68.2731 59.0621 70.796C65.1529 73.3189 71.8552 73.979 78.3212 72.6928C84.7872 71.4067 90.7267 68.232 95.3884 63.5702C100.05 58.9085 103.225 52.969 104.511 46.503C105.797 40.037 105.137 33.3348 102.614 27.2439C100.091 21.153 95.8188 15.9471 90.3372 12.2843C84.8556 8.62163 78.4109 6.66667 71.8182 6.66667C70.9341 6.66667 70.0863 6.31548 69.4612 5.69036C68.836 5.06524 68.4849 4.21739 68.4849 3.33333C68.4849 2.44928 68.836 1.60143 69.4612 0.976311C70.0863 0.35119 70.9341 0 71.8182 0C82.4233 0.0114703 92.5908 4.22943 100.09 11.7284C107.589 19.2274 111.807 29.3949 111.818 40ZM37.9082 29.28C38.5675 29.28 39.2119 29.0845 39.7601 28.7182C40.3082 28.352 40.7355 27.8314 40.9878 27.2223C41.2401 26.6132 41.3061 25.943 41.1775 25.2964C41.0489 24.6498 40.7314 24.0558 40.2652 23.5896C39.799 23.1235 39.2051 22.806 38.5585 22.6774C37.9119 22.5488 37.2417 22.6148 36.6326 22.8671C36.0235 23.1194 35.5029 23.5466 35.1366 24.0948C34.7703 24.6429 34.5749 25.2874 34.5749 25.9467C34.5749 26.8307 34.926 27.6786 35.5512 28.3037C36.1763 28.9288 37.0241 29.28 37.9082 29.28ZM45.8882 17.3567C46.5475 17.3567 47.1919 17.1612 47.7401 16.7949C48.2882 16.4286 48.7155 15.908 48.9678 15.2989C49.2201 14.6899 49.2861 14.0196 49.1575 13.373C49.0289 12.7264 48.7114 12.1325 48.2452 11.6663C47.779 11.2001 47.1851 10.8827 46.5385 10.754C45.8919 10.6254 45.2217 10.6914 44.6126 10.9437C44.0035 11.196 43.4829 11.6233 43.1166 12.1714C42.7503 12.7196 42.5549 13.3641 42.5549 14.0233C42.5549 14.9074 42.906 15.7552 43.5312 16.3804C44.1563 17.0055 45.0041 17.3567 45.8882 17.3567ZM57.7482 9.47C58.4075 9.47 59.0519 9.2745 59.6001 8.90823C60.1482 8.54196 60.5755 8.02137 60.8278 7.41228C61.0801 6.80319 61.1461 6.13297 61.0175 5.48637C60.8889 4.83976 60.5714 4.24582 60.1052 3.77964C59.639 3.31347 59.0451 2.996 58.3985 2.86738C57.7519 2.73877 57.0817 2.80478 56.4726 3.05707C55.8635 3.30936 55.3429 3.7366 54.9766 4.28477C54.6103 4.83293 54.4149 5.4774 54.4149 6.13667C54.4149 7.02072 54.766 7.86857 55.3912 8.49369C56.0163 9.11881 56.8641 9.47 57.7482 9.47Z" fill="white"/>
<path d="M111.818 40C111.818 50.6087 107.604 60.7828 100.102 68.2843C92.601 75.7857 82.4268 80 71.8182 80C61.2095 80 51.0354 75.7857 43.5339 68.2843C36.0325 60.7828 31.8182 50.6087 31.8182 40C31.8182 39.1159 32.1694 38.2681 32.7945 37.643C33.4196 37.0179 34.2675 36.6667 35.1515 36.6667C36.0356 36.6667 36.8834 37.0179 37.5085 37.643C38.1337 38.2681 38.4849 39.1159 38.4849 40C38.4849 46.5927 40.4398 53.0374 44.1025 58.519C47.7652 64.0006 52.9712 68.2731 59.0621 70.796C65.1529 73.3189 71.8552 73.979 78.3212 72.6928C84.7872 71.4067 90.7267 68.232 95.3884 63.5702C100.05 58.9085 103.225 52.969 104.511 46.503C105.797 40.037 105.137 33.3348 102.614 27.2439C100.091 21.153 95.8188 15.9471 90.3372 12.2843C84.8556 8.62163 78.4109 6.66667 71.8182 6.66667C70.9341 6.66667 70.0863 6.31548 69.4612 5.69036C68.836 5.06524 68.4849 4.21739 68.4849 3.33333C68.4849 2.44928 68.836 1.60143 69.4612 0.976311C70.0863 0.35119 70.9341 0 71.8182 0C82.4233 0.0114703 92.5908 4.22943 100.09 11.7284C107.589 19.2274 111.807 29.3949 111.818 40ZM37.9082 29.28C38.5675 29.28 39.2119 29.0845 39.7601 28.7182C40.3082 28.352 40.7355 27.8314 40.9878 27.2223C41.2401 26.6132 41.3061 25.943 41.1775 25.2964C41.0489 24.6498 40.7314 24.0558 40.2652 23.5896C39.799 23.1235 39.2051 22.806 38.5585 22.6774C37.9119 22.5488 37.2417 22.6148 36.6326 22.8671C36.0235 23.1194 35.5029 23.5466 35.1366 24.0948C34.7703 24.6429 34.5749 25.2874 34.5749 25.9467C34.5749 26.8307 34.926 27.6786 35.5512 28.3037C36.1763 28.9288 37.0241 29.28 37.9082 29.28ZM45.8882 17.3567C46.5475 17.3567 47.1919 17.1612 47.7401 16.7949C48.2882 16.4286 48.7155 15.908 48.9678 15.2989C49.2201 14.6899 49.2861 14.0196 49.1575 13.373C49.0289 12.7264 48.7114 12.1325 48.2452 11.6663C47.779 11.2001 47.1851 10.8827 46.5385 10.754C45.8919 10.6254 45.2217 10.6914 44.6126 10.9437C44.0035 11.196 43.4829 11.6233 43.1166 12.1714C42.7503 12.7196 42.5549 13.3641 42.5549 14.0233C42.5549 14.9074 42.906 15.7552 43.5312 16.3804C44.1563 17.0055 45.0041 17.3567 45.8882 17.3567ZM57.7482 9.47C58.4075 9.47 59.0519 9.2745 59.6001 8.90823C60.1482 8.54196 60.5755 8.02137 60.8278 7.41228C61.0801 6.80319 61.1461 6.13297 61.0175 5.48637C60.8889 4.83976 60.5714 4.24582 60.1052 3.77964C59.639 3.31347 59.0451 2.996 58.3985 2.86738C57.7519 2.73877 57.0817 2.80478 56.4726 3.05707C55.8635 3.30936 55.3429 3.7366 54.9766 4.28477C54.6103 4.83293 54.4149 5.4774 54.4149 6.13667C54.4149 7.02072 54.766 7.86857 55.3912 8.49369C56.0163 9.11881 56.8641 9.47 57.7482 9.47Z" fill="url(#paint1_linear_3_10)"/>
<mask id="path-4-inside-1_3_10" fill="white">
<path d="M83.6534 57.7869L83.8169 57.734C84.0608 57.6552 84.3307 57.6566 84.5702 57.848C84.7864 57.9583 84.9992 58.0668 85.3235 57.9619C85.404 57.9359 85.4611 57.8289 85.4084 57.6658C85.3038 57.3422 85.2797 56.9926 85.2538 56.9123C85.2556 56.643 85.419 56.5901 85.5799 56.5381C85.6604 56.5121 85.6604 56.5121 85.6077 56.349L85.3915 56.2388C85.311 56.2648 85.2539 56.3719 85.2807 56.4547C85.2262 56.561 85.1699 56.6706 85.0368 56.5335L84.6535 57.0148L84.0325 57.0354L82.5883 55.8923L82.2325 53.6828C82.2066 53.6025 82.0735 53.4654 81.8036 53.464C81.5337 53.4626 81.481 53.2995 81.5355 53.1932C81.1584 53.135 80.7017 53.1053 80.2139 53.263C80.1334 53.289 79.9154 53.448 79.5374 53.6617C79.1326 53.7925 78.8886 53.8713 78.8359 53.7083C78.7573 53.4649 78.8448 52.902 78.8224 52.283C78.8242 52.0137 78.7768 51.583 78.8045 51.3939C78.7518 51.2308 78.7804 51.0443 78.7804 51.0443L78.8715 49.9427L78.7383 49.8056L78.1441 49.909C77.9806 49.9618 77.5195 50.4682 77.2166 50.9235C76.9691 51.541 76.7752 52.0497 76.8798 52.3733L75.3624 53.221C75.0381 53.3259 74.6877 53.3504 74.3392 53.1057C74.1283 52.7278 73.7271 52.3199 73.2462 51.9406C72.7914 51.6416 72.5796 51.2612 72.4491 50.8573C72.2918 50.3706 72.1631 49.6974 72.196 49.2407C72.2023 48.7012 72.0199 48.1368 71.5356 47.7558C71.6161 47.7298 71.8073 47.4879 71.5945 47.3794L71.8421 46.7618L71.8966 46.6556L72.003 46.7098C72.2487 46.3617 72.7911 46.0978 73.3023 46.0212C73.8965 45.9178 74.1423 45.5696 74.1727 45.1138L74.9242 45.4971C75.1136 45.5245 75.2548 44.8527 75.2029 44.6922L74.9063 44.6079L76.2627 43.8122L76.3959 43.9493L77.0446 43.7396L78.0141 43.9639C78.0946 43.9379 78.1517 43.8308 78.2054 43.7219C78.3162 43.506 78.3966 43.48 78.5038 43.5368L79.4949 44.1115C79.4671 44.3006 79.519 44.4611 79.5717 44.6242C79.6781 44.6785 79.7879 44.7345 79.8138 44.8147C79.9184 45.1383 81.1186 46.3602 81.5261 46.2285C81.77 46.1497 81.7977 45.9606 81.6127 45.663L81.4036 45.0158C81.273 44.6119 81.0353 44.1512 80.7154 43.7199C80.3409 43.3949 79.9968 42.88 79.6761 42.4461L79.6234 42.283C79.5447 42.0396 79.6296 41.7435 79.9021 41.4781C80.0933 41.2362 80.2023 41.0237 80.2023 41.0237C80.3936 40.7818 80.5597 40.4622 80.8314 40.1943C81.0226 39.9524 81.136 39.4697 81.2183 39.1743L81.279 38.5285L81.1744 38.2049L81.4183 38.1261C81.4183 38.1261 81.5559 37.993 81.5032 37.8299C81.5032 37.8299 81.3968 37.7757 81.3138 37.8025C81.2074 37.7483 80.9108 37.664 80.6954 37.5563L80.8062 37.3404C80.9715 37.0182 80.8687 36.4253 80.63 36.2365L81.1742 35.7032C81.1153 36.0797 81.6291 36.0023 81.7666 35.8692L81.8559 35.0369C81.5619 34.6859 81.612 35.1157 81.6986 34.5502C81.9166 34.3911 82.1338 34.2294 82.3233 33.9909C82.5413 33.8319 82.6754 33.697 82.9193 33.6182C82.9998 33.5922 83.1088 33.6456 83.1088 33.6456C83.2722 33.5928 83.3268 33.4865 83.3268 33.4865C83.2481 33.2432 83.1158 33.1087 83.0328 33.1355L83.1498 32.1141C83.4742 32.0093 83.7458 31.7414 83.8048 31.365L84.4276 31.075C84.5911 31.0222 84.6456 30.916 84.5929 30.7529L84.5402 30.5898L85.6527 29.8729L85.6856 29.4162L85.204 29.0343C85.204 29.0343 85.2585 28.9281 85.2317 28.8452C85.205 28.7624 85.0986 28.7081 84.9896 28.6547C84.9091 28.6807 84.8002 28.6273 84.7197 28.6533C84.6133 28.599 84.5035 28.543 84.4231 28.569L85.0718 28.3594C85.0718 28.3594 85.3703 28.1743 85.2917 27.9309C85.1871 27.6073 84.9977 27.5799 84.6733 27.6847C83.7806 27.9732 82.5072 28.7421 82.3331 29.8706L81.9238 30.2716L82.3634 29.4147L82.3912 29.2256C82.3652 29.1454 82.258 29.0885 82.0686 29.0611L81.8247 29.1399C82.6369 28.8775 83.0435 28.4773 83.2893 28.1291C83.4546 27.8069 83.6199 27.4848 84.1337 27.1414C84.728 27.038 85.2963 26.8544 85.862 26.6716C86.3239 26.4336 86.8092 26.2768 87.3775 26.0932C87.5687 25.8512 87.7886 25.4228 87.8449 25.0472L88.6312 24.7045C88.8474 24.8147 89.2817 24.2255 89.2031 23.9821C89.1245 23.7388 89.0181 23.6845 88.7482 23.6831C88.4784 23.6817 88.1817 23.5974 88.1031 23.3541L88.0244 23.1107C88.0789 23.0045 87.9717 22.9476 87.8913 22.9736C87.5669 23.0784 86.8852 23.7448 86.6965 23.9859C86.5857 24.2018 86.4267 23.9845 86.374 23.8214L86.4803 23.8756L86.752 23.6077L87.4597 23.0216L87.5142 22.9154C87.4096 22.5918 86.8958 22.6692 86.7349 22.7212C86.6545 22.7471 86.5169 22.8802 86.3828 23.0151C86.2193 23.0679 86.0584 23.1199 86.0057 22.9568L86.0335 22.7677C85.3346 22.5475 84.5875 21.894 84.5089 21.6507L84.4043 21.3271C84.4588 21.2208 84.3784 21.2468 84.2149 21.2997L83.9709 21.3785C83.9164 21.4847 83.8074 21.4313 83.7547 21.2682C83.702 21.1051 83.0907 20.322 82.6859 20.4528L82.5206 20.775C82.5733 20.9381 82.5188 21.0443 82.3812 21.1774C82.2437 21.3105 82.19 21.4193 82.2159 21.4996L82.1355 21.5256L81.4805 22.2748C81.4278 22.1117 81.3474 22.1377 81.2911 22.2474C81.2107 22.2734 81.2366 22.3536 81.0731 22.4064L80.9096 22.4593C81.3144 22.3284 81.0508 21.7875 80.7264 21.8923L80.1036 22.1822C79.9401 22.2351 79.9401 22.2351 80.0509 22.0191C80.0786 21.83 80.1902 21.6167 79.974 21.5064C79.9213 21.3433 79.8409 21.3693 79.7846 21.479L79.8695 21.1828C80.007 21.0497 79.6585 20.805 79.4423 20.6947L78.6872 20.8501L78.042 20.5211C77.9875 20.6273 77.8785 20.5739 77.6917 20.5456C77.5853 20.4914 77.3691 20.3811 77.2887 20.4071L76.799 20.8341L75.2334 20.9827C75.0699 21.0355 74.8545 21.1937 74.9332 21.4371C74.9591 21.5173 74.9859 21.6002 75.0663 21.5742C75.2557 21.6016 75.2825 21.6844 75.3085 21.7647C75.3344 21.845 75.5194 22.1426 75.7338 22.5222C75.8643 22.926 75.917 23.0891 75.6471 23.0877L75.48 23.6792C75.5328 23.8423 75.7222 23.8697 75.8026 23.8437C76.0993 23.928 76.421 24.0899 76.6605 24.2813C76.8767 24.3916 76.9545 24.6323 76.9501 24.9025L75.801 26.6148L75.827 26.695C75.9056 26.9384 75.9575 27.0989 76.0906 27.236C76.3068 27.3463 76.3846 27.587 76.6242 27.7784C77.0817 27.8106 77.1336 27.9712 76.8619 28.2391C76.6984 28.2919 76.5634 28.4242 76.4267 28.5598L76.3159 28.7758C76.3419 28.856 76.2614 28.882 76.1784 28.9088L75.7736 29.0397C75.7736 29.0397 75.7476 28.9594 75.8281 28.9334C75.8281 28.9334 75.8826 28.8272 75.8558 28.7443L74.9961 28.5761L74.4885 28.114C74.4903 27.8446 74.4384 27.6841 74.3312 27.6273C74.224 27.5705 74.1721 27.4099 74.1203 27.2494C74.0684 27.0889 73.7736 26.7353 73.4492 26.8401C73.0444 26.971 72.7459 27.156 72.3653 27.3706C72.5028 27.2375 72.0445 26.9367 71.9641 26.9627C71.5592 27.0935 71.0187 27.0881 70.3458 26.9481C69.6729 26.8082 69.2153 26.7759 68.891 26.8807C68.647 26.9596 68.1877 27.1966 67.916 27.4646C68.0536 27.3315 68.0268 27.2486 68.0294 26.9819L67.2797 26.3292L67.1733 26.275C67.0099 26.3278 66.8749 26.4601 66.7641 26.676C66.6266 26.8091 66.3593 26.8068 66.2547 26.4832C66.2288 26.4029 66.2824 26.2941 66.2824 26.2941C66.337 26.1879 66.337 26.1879 66.2297 26.131C66.1511 25.8877 66.1529 25.6183 66.319 25.2987C66.4298 25.0828 66.4057 24.7332 66.4083 24.4664C66.5459 24.3334 66.5191 24.2505 66.4932 24.1703C66.4405 24.0072 66.5209 23.9812 66.604 23.9543C66.7675 23.9015 66.9829 23.7433 67.1196 23.6076C67.2304 23.3917 67.3653 23.2594 67.6092 23.1806L67.6111 22.9112C67.5851 22.831 67.3144 22.827 66.8032 22.9035C66.209 23.0069 65.965 23.0858 65.9123 22.9227L65.9668 22.8164C66.5074 22.8219 66.9382 22.7713 67.1821 22.6925C67.6959 22.6151 67.8854 22.3766 68.2946 21.9755C68.4321 21.8425 68.8647 21.5225 69.1909 21.1484C69.165 21.0681 69.0845 21.0941 68.8138 21.0901L69.1382 20.9853L69.6019 20.478L69.4974 20.1544L69.2812 20.0442L70.0407 19.6186C69.9076 19.4815 70.0425 19.3492 70.1256 19.3224C70.289 19.2696 70.4759 19.2978 70.6921 19.4081C70.9083 19.5183 70.9887 19.4923 71.0691 19.4664L71.7197 18.9874C71.6938 18.9071 71.7742 18.8811 71.9377 18.8283C72.0753 18.6952 72.1289 18.5863 72.0226 18.5321L71.271 18.1488C71.1075 18.2016 70.9485 17.9843 71.1119 17.9314C71.3559 17.8526 71.4908 17.7204 71.2513 17.529C71.0619 17.5016 70.7678 17.4165 70.498 17.4151C70.2013 17.3308 69.9315 17.3294 69.6901 17.4074C69.5266 17.4602 69.2282 17.6453 69.3068 17.8886C69.3595 18.0517 69.44 18.0257 69.523 17.9989C69.6865 17.9461 69.7929 18.0003 69.8197 18.0832C70.0091 18.1106 69.9528 18.2203 69.7919 18.2722L69.6284 18.3251C69.4649 18.3779 69.2763 18.619 69.2174 18.9954C69.1326 19.2916 68.9699 19.613 68.7519 19.772C68.6714 19.798 68.6714 19.798 68.6455 19.7178C68.7 19.6115 68.6195 19.6375 68.5928 19.5547C68.4864 19.5004 68.3766 19.4444 68.2961 19.4704C68.1067 19.443 67.9458 19.495 67.919 19.4121C67.8663 19.2491 68.0039 19.116 68.0861 18.8206C68.0879 18.5513 67.8181 18.5499 67.4133 18.6807C67.2498 18.7335 67.1148 18.8658 67.0871 19.0548C67.0326 19.1611 67.0022 19.351 66.9736 19.5375L65.8736 18.9095L65.1989 19.0389C65.1462 18.8758 65.1748 18.6893 65.2051 18.4993C65.264 18.1229 64.4822 17.9295 64.1622 17.7642C64.0817 17.7902 63.8923 17.7628 63.7314 17.8147C63.651 17.8407 63.2936 18.4023 63.0219 18.6702C62.8844 18.8033 62.8307 18.9121 62.8567 18.9924C62.9094 19.1555 63.0728 19.1026 63.3142 19.0246L63.2337 19.0506C63.0703 19.1035 63.0157 19.2097 63.0944 19.4531C63.1203 19.5333 63.8218 19.4868 63.9853 19.4339C64.1488 19.3811 64.3096 19.3291 64.3356 19.4093C64.442 19.4636 64.442 19.4636 64.6054 19.4108L64.8235 19.2517L64.8762 19.4148L64.8484 19.6039L65.0075 19.8212L64.3258 20.4876L64.2713 20.5938C64.1908 20.6198 64.1078 20.6467 64.1337 20.7269C64.1596 20.8072 64.2123 20.9703 64.4277 21.0779C64.5608 21.215 64.5063 21.3213 64.1015 21.4521L63.8049 21.3678C63.7522 21.2047 63.5368 21.0971 63.0793 21.0648C62.2714 21.0571 60.948 21.3961 59.8113 21.7635C59.2171 21.8669 58.8123 21.9977 58.4879 22.1025L57.4013 22.8997L57.9349 23.4421C57.8544 23.468 57.7169 23.6011 57.7169 23.6011C57.3138 23.4626 56.6695 23.1362 56.5086 23.1882L55.9144 23.2916C54.1549 23.9488 52.5974 26.3306 51.2241 29.0074C49.8507 31.6842 48.7974 34.5264 48.3497 36.1921L48.5132 36.1393C48.6767 36.0865 48.7312 35.9802 48.9484 35.8186C49.0859 35.6855 49.2183 35.82 49.2969 36.0633C49.3496 36.2264 49.3755 36.3067 49.347 36.4932C49.3184 36.6797 49.506 36.7105 49.8304 36.6057C49.9109 36.5797 49.968 36.4726 49.9153 36.3095C49.943 36.1204 49.943 36.1204 49.9957 36.2835L50.3424 36.7976L50.3684 36.8779C50.3943 36.9581 50.3406 37.067 50.2835 37.1741C50.0655 37.3332 50.3881 37.4977 50.632 37.4188L51.0368 37.288L51.1744 37.1549L51.2289 37.0487C51.3335 37.3723 51.6838 37.3477 51.9277 37.2689L52.0082 37.2429C52.0082 37.2429 51.9804 37.432 51.9233 37.5391C51.7598 37.5919 51.7858 37.6722 51.976 37.7022L52.841 37.6028L52.8669 37.683L53.6945 38.5764C53.7472 38.7395 53.7142 39.1962 53.5533 39.2482C53.3924 39.3002 53.3639 39.2208 53.3371 39.138C53.4175 39.112 53.3916 39.0317 53.3389 38.8686C53.313 38.7884 53.2058 38.7315 53.1798 38.6513C53.0734 38.597 52.9099 38.6498 52.5856 38.7547C52.5051 38.7807 52.2612 38.8595 52.5007 39.0508L53.1933 39.8106L53.4095 39.9208C52.9217 40.0785 53.3641 41.7225 53.5214 42.2092L53.811 42.8304L53.9701 43.0478L53.996 43.128L54.1506 43.8815L55.6466 45.185L55.8906 45.1062C55.9165 45.1864 55.9433 45.2693 55.8888 45.3755C55.8343 45.4818 55.861 45.5646 55.9129 45.7251L56.3159 45.8636C56.4732 46.3503 56.6626 46.3778 57.198 46.6508C57.2766 46.8941 57.7056 47.1129 58.298 47.2789C58.945 47.3385 59.3212 47.3942 59.5089 47.4251C60.1997 48.4541 61.1595 49.4821 62.2051 49.9505L62.4428 50.4112L62.332 50.6271C62.1685 50.6799 62.1945 50.7602 62.3043 50.8162L63.0576 50.9301C63.1684 50.7142 63.3016 50.8513 63.5411 51.0427C63.8092 51.3134 63.9423 51.4505 64.0487 51.5048L64.1273 51.7481L64.7154 52.1843L64.9316 52.2945L64.9645 51.8378C64.6705 51.4868 63.817 50.7791 63.0941 50.2093C62.7196 49.8842 62.3444 49.5566 61.9984 49.311C61.7563 49.1205 61.624 48.986 61.5972 48.9032C61.5705 48.8203 61.2031 47.9583 61.0673 47.8221C61.1737 47.8763 61.4444 47.8804 61.6338 47.9078C61.9037 47.9092 62.1744 47.9132 62.3612 47.9415C62.6508 48.5627 63.052 48.9705 63.5874 49.2436C64.0163 49.4624 64.4712 49.7614 64.8724 50.1692C64.7616 50.3852 65.0886 50.2795 65.2495 50.2275C65.3827 50.3646 65.4086 50.4449 65.5132 50.7685C66.4775 51.2603 68.4881 52.489 68.7232 53.2165L68.7491 53.2967L68.7429 53.8362C69.3024 54.4589 70.2148 54.7902 71.0253 54.797L71.1888 54.7442C71.6722 54.8567 72.3192 54.9164 72.9653 54.9735C73.5577 55.1395 74.1216 55.226 74.6614 55.2288L75.3163 54.4797C75.7471 54.4291 76.3663 54.6779 77.0911 54.9783C77.8158 55.2788 78.7283 55.6101 79.7541 55.4587C79.9998 55.1105 80.1893 55.138 80.2947 55.4641L80.3474 55.6272L81.5797 56.3898L81.9005 56.8237C82.4929 56.9896 83.2159 57.2935 83.6423 57.779L83.6534 57.7869ZM60.0423 20.4737L59.9091 20.3366C59.7197 20.3092 59.2622 20.2769 59.1013 20.3289C59.0208 20.3549 58.8833 20.488 58.5857 20.6756C58.1219 21.1829 57.3079 21.7147 56.7637 22.248C56.492 22.5159 56.274 22.675 56.1131 22.727C56.4375 22.6222 56.736 22.4371 57.0076 22.1692C57.1989 21.9272 57.4973 21.7421 57.8217 21.6373L58.1183 21.7216C58.3077 21.749 58.3882 21.723 58.5491 21.671C58.6295 21.645 58.7126 21.6182 58.9262 21.7293C59.0637 21.5962 59.2246 21.5442 59.5204 21.6259L59.7116 21.384L59.6071 21.0604L59.4739 20.9233L59.6633 20.9507C59.8268 20.8978 59.9618 20.7656 60.0466 20.4694L60.0423 20.4737ZM87.6055 63.9236L87.8432 64.3843C87.8959 64.5474 87.8155 64.5733 87.7843 64.7607C87.5931 65.0026 87.266 65.3742 87.4233 65.8609C87.4493 65.9412 87.5565 65.998 87.6084 66.1585C87.7147 66.2128 87.8245 66.2688 87.8764 66.4293C87.9024 66.5095 87.8487 66.6184 87.8746 66.6986C93.1558 63.9198 97.3224 59.6255 99.8815 54.241L99.801 54.267C99.6635 54.4001 99.4221 54.4781 99.3132 54.4246L99.0952 54.5837L98.6644 54.6343L98.4205 54.7131C98.1783 54.5226 97.9656 54.4141 97.6689 54.3298L97.5625 54.2756C97.4821 54.3016 97.3991 54.3284 97.4518 54.4915C97.2167 53.764 96.4392 53.3005 95.7905 53.5101C95.8164 53.5904 95.7359 53.6164 95.7359 53.6164L95.5725 53.6692L95.383 53.6418L95.627 53.563L95.6332 53.0234L95.1497 52.9109L95.0952 53.0172C94.7449 53.0417 94.4482 52.9575 94.1828 52.6859L93.9129 52.6844L93.9388 52.7647L93.8013 52.8978C93.5028 53.0829 93.2857 53.2445 93.1507 53.3768C92.8004 53.4013 92.5038 53.3171 92.3974 53.2628L91.4502 53.6576C91.3456 53.334 91.0516 52.9829 90.6468 53.1138C90.1589 53.2714 89.5102 53.4811 89.5325 54.1C89.5852 54.2631 89.7434 54.4779 89.8532 54.5339L89.9578 54.8575L89.9301 55.0466L89.8756 55.1528L89.7951 55.1788L89.368 54.6907L89.5073 54.2883C89.3742 54.1512 89.3482 54.0709 89.2964 53.9104C89.2445 53.7499 89.1373 53.6931 89.0854 53.5325L88.979 53.4783L88.7351 53.5571L88.3518 54.0384L88.0274 54.1432L87.9997 54.3323C87.9192 54.3583 87.9452 54.4386 87.972 54.5214C87.972 54.5214 87.8915 54.5474 87.9174 54.6276L87.8111 54.5734L87.4867 54.6782C87.3759 54.8941 87.3733 55.1609 87.3715 55.4302L87.5876 55.5405L87.2355 55.8344L87.2078 56.0235L87.0166 56.2654L87.0425 56.3457L86.962 56.3717L87.0926 56.7755L87.0121 56.8015C86.8271 56.5039 86.4786 56.2592 85.9121 56.1735L85.6681 56.2523L85.7208 56.4154C85.7735 56.5785 85.963 56.6059 86.1498 56.6342C86.366 56.7444 86.4983 56.879 86.6047 56.9332C86.4983 56.879 86.3608 57.012 86.3867 57.0923L86.4394 57.2554L87.1623 57.8252L87.6066 59.1998L87.8746 59.4706C87.8417 59.9273 87.8121 60.3857 87.646 60.7053L87.6201 60.6251L87.4825 60.7582L87.428 60.8644L87.4521 61.214L87.5585 61.2683L87.5844 61.3485L87.3682 61.2383L87.4451 61.751L87.093 62.0449C86.9554 62.178 86.9017 62.2868 87.06 62.5016C87.1127 62.6647 87.0582 62.7709 86.9206 62.904L87.0538 63.0411L86.9689 63.3373C86.9949 63.4175 87.0216 63.5004 86.9412 63.5264L87.0458 63.85L87.3094 64.3909L87.4988 64.4183L87.6364 64.2853L87.6055 63.9236Z"/>
</mask>
<path d="M83.6534 57.7869L83.8169 57.734C84.0608 57.6552 84.3307 57.6566 84.5702 57.848C84.7864 57.9583 84.9992 58.0668 85.3235 57.9619C85.404 57.9359 85.4611 57.8289 85.4084 57.6658C85.3038 57.3422 85.2797 56.9926 85.2538 56.9123C85.2556 56.643 85.419 56.5901 85.5799 56.5381C85.6604 56.5121 85.6604 56.5121 85.6077 56.349L85.3915 56.2388C85.311 56.2648 85.2539 56.3719 85.2807 56.4547C85.2262 56.561 85.1699 56.6706 85.0368 56.5335L84.6535 57.0148L84.0325 57.0354L82.5883 55.8923L82.2325 53.6828C82.2066 53.6025 82.0735 53.4654 81.8036 53.464C81.5337 53.4626 81.481 53.2995 81.5355 53.1932C81.1584 53.135 80.7017 53.1053 80.2139 53.263C80.1334 53.289 79.9154 53.448 79.5374 53.6617C79.1326 53.7925 78.8886 53.8713 78.8359 53.7083C78.7573 53.4649 78.8448 52.902 78.8224 52.283C78.8242 52.0137 78.7768 51.583 78.8045 51.3939C78.7518 51.2308 78.7804 51.0443 78.7804 51.0443L78.8715 49.9427L78.7383 49.8056L78.1441 49.909C77.9806 49.9618 77.5195 50.4682 77.2166 50.9235C76.9691 51.541 76.7752 52.0497 76.8798 52.3733L75.3624 53.221C75.0381 53.3259 74.6877 53.3504 74.3392 53.1057C74.1283 52.7278 73.7271 52.3199 73.2462 51.9406C72.7914 51.6416 72.5796 51.2612 72.4491 50.8573C72.2918 50.3706 72.1631 49.6974 72.196 49.2407C72.2023 48.7012 72.0199 48.1368 71.5356 47.7558C71.6161 47.7298 71.8073 47.4879 71.5945 47.3794L71.8421 46.7618L71.8966 46.6556L72.003 46.7098C72.2487 46.3617 72.7911 46.0978 73.3023 46.0212C73.8965 45.9178 74.1423 45.5696 74.1727 45.1138L74.9242 45.4971C75.1136 45.5245 75.2548 44.8527 75.2029 44.6922L74.9063 44.6079L76.2627 43.8122L76.3959 43.9493L77.0446 43.7396L78.0141 43.9639C78.0946 43.9379 78.1517 43.8308 78.2054 43.7219C78.3162 43.506 78.3966 43.48 78.5038 43.5368L79.4949 44.1115C79.4671 44.3006 79.519 44.4611 79.5717 44.6242C79.6781 44.6785 79.7879 44.7345 79.8138 44.8147C79.9184 45.1383 81.1186 46.3602 81.5261 46.2285C81.77 46.1497 81.7977 45.9606 81.6127 45.663L81.4036 45.0158C81.273 44.6119 81.0353 44.1512 80.7154 43.7199C80.3409 43.3949 79.9968 42.88 79.6761 42.4461L79.6234 42.283C79.5447 42.0396 79.6296 41.7435 79.9021 41.4781C80.0933 41.2362 80.2023 41.0237 80.2023 41.0237C80.3936 40.7818 80.5597 40.4622 80.8314 40.1943C81.0226 39.9524 81.136 39.4697 81.2183 39.1743L81.279 38.5285L81.1744 38.2049L81.4183 38.1261C81.4183 38.1261 81.5559 37.993 81.5032 37.8299C81.5032 37.8299 81.3968 37.7757 81.3138 37.8025C81.2074 37.7483 80.9108 37.664 80.6954 37.5563L80.8062 37.3404C80.9715 37.0182 80.8687 36.4253 80.63 36.2365L81.1742 35.7032C81.1153 36.0797 81.6291 36.0023 81.7666 35.8692L81.8559 35.0369C81.5619 34.6859 81.612 35.1157 81.6986 34.5502C81.9166 34.3911 82.1338 34.2294 82.3233 33.9909C82.5413 33.8319 82.6754 33.697 82.9193 33.6182C82.9998 33.5922 83.1088 33.6456 83.1088 33.6456C83.2722 33.5928 83.3268 33.4865 83.3268 33.4865C83.2481 33.2432 83.1158 33.1087 83.0328 33.1355L83.1498 32.1141C83.4742 32.0093 83.7458 31.7414 83.8048 31.365L84.4276 31.075C84.5911 31.0222 84.6456 30.916 84.5929 30.7529L84.5402 30.5898L85.6527 29.8729L85.6856 29.4162L85.204 29.0343C85.204 29.0343 85.2585 28.9281 85.2317 28.8452C85.205 28.7624 85.0986 28.7081 84.9896 28.6547C84.9091 28.6807 84.8002 28.6273 84.7197 28.6533C84.6133 28.599 84.5035 28.543 84.4231 28.569L85.0718 28.3594C85.0718 28.3594 85.3703 28.1743 85.2917 27.9309C85.1871 27.6073 84.9977 27.5799 84.6733 27.6847C83.7806 27.9732 82.5072 28.7421 82.3331 29.8706L81.9238 30.2716L82.3634 29.4147L82.3912 29.2256C82.3652 29.1454 82.258 29.0885 82.0686 29.0611L81.8247 29.1399C82.6369 28.8775 83.0435 28.4773 83.2893 28.1291C83.4546 27.8069 83.6199 27.4848 84.1337 27.1414C84.728 27.038 85.2963 26.8544 85.862 26.6716C86.3239 26.4336 86.8092 26.2768 87.3775 26.0932C87.5687 25.8512 87.7886 25.4228 87.8449 25.0472L88.6312 24.7045C88.8474 24.8147 89.2817 24.2255 89.2031 23.9821C89.1245 23.7388 89.0181 23.6845 88.7482 23.6831C88.4784 23.6817 88.1817 23.5974 88.1031 23.3541L88.0244 23.1107C88.0789 23.0045 87.9717 22.9476 87.8913 22.9736C87.5669 23.0784 86.8852 23.7448 86.6965 23.9859C86.5857 24.2018 86.4267 23.9845 86.374 23.8214L86.4803 23.8756L86.752 23.6077L87.4597 23.0216L87.5142 22.9154C87.4096 22.5918 86.8958 22.6692 86.7349 22.7212C86.6545 22.7471 86.5169 22.8802 86.3828 23.0151C86.2193 23.0679 86.0584 23.1199 86.0057 22.9568L86.0335 22.7677C85.3346 22.5475 84.5875 21.894 84.5089 21.6507L84.4043 21.3271C84.4588 21.2208 84.3784 21.2468 84.2149 21.2997L83.9709 21.3785C83.9164 21.4847 83.8074 21.4313 83.7547 21.2682C83.702 21.1051 83.0907 20.322 82.6859 20.4528L82.5206 20.775C82.5733 20.9381 82.5188 21.0443 82.3812 21.1774C82.2437 21.3105 82.19 21.4193 82.2159 21.4996L82.1355 21.5256L81.4805 22.2748C81.4278 22.1117 81.3474 22.1377 81.2911 22.2474C81.2107 22.2734 81.2366 22.3536 81.0731 22.4064L80.9096 22.4593C81.3144 22.3284 81.0508 21.7875 80.7264 21.8923L80.1036 22.1822C79.9401 22.2351 79.9401 22.2351 80.0509 22.0191C80.0786 21.83 80.1902 21.6167 79.974 21.5064C79.9213 21.3433 79.8409 21.3693 79.7846 21.479L79.8695 21.1828C80.007 21.0497 79.6585 20.805 79.4423 20.6947L78.6872 20.8501L78.042 20.5211C77.9875 20.6273 77.8785 20.5739 77.6917 20.5456C77.5853 20.4914 77.3691 20.3811 77.2887 20.4071L76.799 20.8341L75.2334 20.9827C75.0699 21.0355 74.8545 21.1937 74.9332 21.4371C74.9591 21.5173 74.9859 21.6002 75.0663 21.5742C75.2557 21.6016 75.2825 21.6844 75.3085 21.7647C75.3344 21.845 75.5194 22.1426 75.7338 22.5222C75.8643 22.926 75.917 23.0891 75.6471 23.0877L75.48 23.6792C75.5328 23.8423 75.7222 23.8697 75.8026 23.8437C76.0993 23.928 76.421 24.0899 76.6605 24.2813C76.8767 24.3916 76.9545 24.6323 76.9501 24.9025L75.801 26.6148L75.827 26.695C75.9056 26.9384 75.9575 27.0989 76.0906 27.236C76.3068 27.3463 76.3846 27.587 76.6242 27.7784C77.0817 27.8106 77.1336 27.9712 76.8619 28.2391C76.6984 28.2919 76.5634 28.4242 76.4267 28.5598L76.3159 28.7758C76.3419 28.856 76.2614 28.882 76.1784 28.9088L75.7736 29.0397C75.7736 29.0397 75.7476 28.9594 75.8281 28.9334C75.8281 28.9334 75.8826 28.8272 75.8558 28.7443L74.9961 28.5761L74.4885 28.114C74.4903 27.8446 74.4384 27.6841 74.3312 27.6273C74.224 27.5705 74.1721 27.4099 74.1203 27.2494C74.0684 27.0889 73.7736 26.7353 73.4492 26.8401C73.0444 26.971 72.7459 27.156 72.3653 27.3706C72.5028 27.2375 72.0445 26.9367 71.9641 26.9627C71.5592 27.0935 71.0187 27.0881 70.3458 26.9481C69.6729 26.8082 69.2153 26.7759 68.891 26.8807C68.647 26.9596 68.1877 27.1966 67.916 27.4646C68.0536 27.3315 68.0268 27.2486 68.0294 26.9819L67.2797 26.3292L67.1733 26.275C67.0099 26.3278 66.8749 26.4601 66.7641 26.676C66.6266 26.8091 66.3593 26.8068 66.2547 26.4832C66.2288 26.4029 66.2824 26.2941 66.2824 26.2941C66.337 26.1879 66.337 26.1879 66.2297 26.131C66.1511 25.8877 66.1529 25.6183 66.319 25.2987C66.4298 25.0828 66.4057 24.7332 66.4083 24.4664C66.5459 24.3334 66.5191 24.2505 66.4932 24.1703C66.4405 24.0072 66.5209 23.9812 66.604 23.9543C66.7675 23.9015 66.9829 23.7433 67.1196 23.6076C67.2304 23.3917 67.3653 23.2594 67.6092 23.1806L67.6111 22.9112C67.5851 22.831 67.3144 22.827 66.8032 22.9035C66.209 23.0069 65.965 23.0858 65.9123 22.9227L65.9668 22.8164C66.5074 22.8219 66.9382 22.7713 67.1821 22.6925C67.6959 22.6151 67.8854 22.3766 68.2946 21.9755C68.4321 21.8425 68.8647 21.5225 69.1909 21.1484C69.165 21.0681 69.0845 21.0941 68.8138 21.0901L69.1382 20.9853L69.6019 20.478L69.4974 20.1544L69.2812 20.0442L70.0407 19.6186C69.9076 19.4815 70.0425 19.3492 70.1256 19.3224C70.289 19.2696 70.4759 19.2978 70.6921 19.4081C70.9083 19.5183 70.9887 19.4923 71.0691 19.4664L71.7197 18.9874C71.6938 18.9071 71.7742 18.8811 71.9377 18.8283C72.0753 18.6952 72.1289 18.5863 72.0226 18.5321L71.271 18.1488C71.1075 18.2016 70.9485 17.9843 71.1119 17.9314C71.3559 17.8526 71.4908 17.7204 71.2513 17.529C71.0619 17.5016 70.7678 17.4165 70.498 17.4151C70.2013 17.3308 69.9315 17.3294 69.6901 17.4074C69.5266 17.4602 69.2282 17.6453 69.3068 17.8886C69.3595 18.0517 69.44 18.0257 69.523 17.9989C69.6865 17.9461 69.7929 18.0003 69.8197 18.0832C70.0091 18.1106 69.9528 18.2203 69.7919 18.2722L69.6284 18.3251C69.4649 18.3779 69.2763 18.619 69.2174 18.9954C69.1326 19.2916 68.9699 19.613 68.7519 19.772C68.6714 19.798 68.6714 19.798 68.6455 19.7178C68.7 19.6115 68.6195 19.6375 68.5928 19.5547C68.4864 19.5004 68.3766 19.4444 68.2961 19.4704C68.1067 19.443 67.9458 19.495 67.919 19.4121C67.8663 19.2491 68.0039 19.116 68.0861 18.8206C68.0879 18.5513 67.8181 18.5499 67.4133 18.6807C67.2498 18.7335 67.1148 18.8658 67.0871 19.0548C67.0326 19.1611 67.0022 19.351 66.9736 19.5375L65.8736 18.9095L65.1989 19.0389C65.1462 18.8758 65.1748 18.6893 65.2051 18.4993C65.264 18.1229 64.4822 17.9295 64.1622 17.7642C64.0817 17.7902 63.8923 17.7628 63.7314 17.8147C63.651 17.8407 63.2936 18.4023 63.0219 18.6702C62.8844 18.8033 62.8307 18.9121 62.8567 18.9924C62.9094 19.1555 63.0728 19.1026 63.3142 19.0246L63.2337 19.0506C63.0703 19.1035 63.0157 19.2097 63.0944 19.4531C63.1203 19.5333 63.8218 19.4868 63.9853 19.4339C64.1488 19.3811 64.3096 19.3291 64.3356 19.4093C64.442 19.4636 64.442 19.4636 64.6054 19.4108L64.8235 19.2517L64.8762 19.4148L64.8484 19.6039L65.0075 19.8212L64.3258 20.4876L64.2713 20.5938C64.1908 20.6198 64.1078 20.6467 64.1337 20.7269C64.1596 20.8072 64.2123 20.9703 64.4277 21.0779C64.5608 21.215 64.5063 21.3213 64.1015 21.4521L63.8049 21.3678C63.7522 21.2047 63.5368 21.0971 63.0793 21.0648C62.2714 21.0571 60.948 21.3961 59.8113 21.7635C59.2171 21.8669 58.8123 21.9977 58.4879 22.1025L57.4013 22.8997L57.9349 23.4421C57.8544 23.468 57.7169 23.6011 57.7169 23.6011C57.3138 23.4626 56.6695 23.1362 56.5086 23.1882L55.9144 23.2916C54.1549 23.9488 52.5974 26.3306 51.2241 29.0074C49.8507 31.6842 48.7974 34.5264 48.3497 36.1921L48.5132 36.1393C48.6767 36.0865 48.7312 35.9802 48.9484 35.8186C49.0859 35.6855 49.2183 35.82 49.2969 36.0633C49.3496 36.2264 49.3755 36.3067 49.347 36.4932C49.3184 36.6797 49.506 36.7105 49.8304 36.6057C49.9109 36.5797 49.968 36.4726 49.9153 36.3095C49.943 36.1204 49.943 36.1204 49.9957 36.2835L50.3424 36.7976L50.3684 36.8779C50.3943 36.9581 50.3406 37.067 50.2835 37.1741C50.0655 37.3332 50.3881 37.4977 50.632 37.4188L51.0368 37.288L51.1744 37.1549L51.2289 37.0487C51.3335 37.3723 51.6838 37.3477 51.9277 37.2689L52.0082 37.2429C52.0082 37.2429 51.9804 37.432 51.9233 37.5391C51.7598 37.5919 51.7858 37.6722 51.976 37.7022L52.841 37.6028L52.8669 37.683L53.6945 38.5764C53.7472 38.7395 53.7142 39.1962 53.5533 39.2482C53.3924 39.3002 53.3639 39.2208 53.3371 39.138C53.4175 39.112 53.3916 39.0317 53.3389 38.8686C53.313 38.7884 53.2058 38.7315 53.1798 38.6513C53.0734 38.597 52.9099 38.6498 52.5856 38.7547C52.5051 38.7807 52.2612 38.8595 52.5007 39.0508L53.1933 39.8106L53.4095 39.9208C52.9217 40.0785 53.3641 41.7225 53.5214 42.2092L53.811 42.8304L53.9701 43.0478L53.996 43.128L54.1506 43.8815L55.6466 45.185L55.8906 45.1062C55.9165 45.1864 55.9433 45.2693 55.8888 45.3755C55.8343 45.4818 55.861 45.5646 55.9129 45.7251L56.3159 45.8636C56.4732 46.3503 56.6626 46.3778 57.198 46.6508C57.2766 46.8941 57.7056 47.1129 58.298 47.2789C58.945 47.3385 59.3212 47.3942 59.5089 47.4251C60.1997 48.4541 61.1595 49.4821 62.2051 49.9505L62.4428 50.4112L62.332 50.6271C62.1685 50.6799 62.1945 50.7602 62.3043 50.8162L63.0576 50.9301C63.1684 50.7142 63.3016 50.8513 63.5411 51.0427C63.8092 51.3134 63.9423 51.4505 64.0487 51.5048L64.1273 51.7481L64.7154 52.1843L64.9316 52.2945L64.9645 51.8378C64.6705 51.4868 63.817 50.7791 63.0941 50.2093C62.7196 49.8842 62.3444 49.5566 61.9984 49.311C61.7563 49.1205 61.624 48.986 61.5972 48.9032C61.5705 48.8203 61.2031 47.9583 61.0673 47.8221C61.1737 47.8763 61.4444 47.8804 61.6338 47.9078C61.9037 47.9092 62.1744 47.9132 62.3612 47.9415C62.6508 48.5627 63.052 48.9705 63.5874 49.2436C64.0163 49.4624 64.4712 49.7614 64.8724 50.1692C64.7616 50.3852 65.0886 50.2795 65.2495 50.2275C65.3827 50.3646 65.4086 50.4449 65.5132 50.7685C66.4775 51.2603 68.4881 52.489 68.7232 53.2165L68.7491 53.2967L68.7429 53.8362C69.3024 54.4589 70.2148 54.7902 71.0253 54.797L71.1888 54.7442C71.6722 54.8567 72.3192 54.9164 72.9653 54.9735C73.5577 55.1395 74.1216 55.226 74.6614 55.2288L75.3163 54.4797C75.7471 54.4291 76.3663 54.6779 77.0911 54.9783C77.8158 55.2788 78.7283 55.6101 79.7541 55.4587C79.9998 55.1105 80.1893 55.138 80.2947 55.4641L80.3474 55.6272L81.5797 56.3898L81.9005 56.8237C82.4929 56.9896 83.2159 57.2935 83.6423 57.779L83.6534 57.7869ZM60.0423 20.4737L59.9091 20.3366C59.7197 20.3092 59.2622 20.2769 59.1013 20.3289C59.0208 20.3549 58.8833 20.488 58.5857 20.6756C58.1219 21.1829 57.3079 21.7147 56.7637 22.248C56.492 22.5159 56.274 22.675 56.1131 22.727C56.4375 22.6222 56.736 22.4371 57.0076 22.1692C57.1989 21.9272 57.4973 21.7421 57.8217 21.6373L58.1183 21.7216C58.3077 21.749 58.3882 21.723 58.5491 21.671C58.6295 21.645 58.7126 21.6182 58.9262 21.7293C59.0637 21.5962 59.2246 21.5442 59.5204 21.6259L59.7116 21.384L59.6071 21.0604L59.4739 20.9233L59.6633 20.9507C59.8268 20.8978 59.9618 20.7656 60.0466 20.4694L60.0423 20.4737ZM87.6055 63.9236L87.8432 64.3843C87.8959 64.5474 87.8155 64.5733 87.7843 64.7607C87.5931 65.0026 87.266 65.3742 87.4233 65.8609C87.4493 65.9412 87.5565 65.998 87.6084 66.1585C87.7147 66.2128 87.8245 66.2688 87.8764 66.4293C87.9024 66.5095 87.8487 66.6184 87.8746 66.6986C93.1558 63.9198 97.3224 59.6255 99.8815 54.241L99.801 54.267C99.6635 54.4001 99.4221 54.4781 99.3132 54.4246L99.0952 54.5837L98.6644 54.6343L98.4205 54.7131C98.1783 54.5226 97.9656 54.4141 97.6689 54.3298L97.5625 54.2756C97.4821 54.3016 97.3991 54.3284 97.4518 54.4915C97.2167 53.764 96.4392 53.3005 95.7905 53.5101C95.8164 53.5904 95.7359 53.6164 95.7359 53.6164L95.5725 53.6692L95.383 53.6418L95.627 53.563L95.6332 53.0234L95.1497 52.9109L95.0952 53.0172C94.7449 53.0417 94.4482 52.9575 94.1828 52.6859L93.9129 52.6844L93.9388 52.7647L93.8013 52.8978C93.5028 53.0829 93.2857 53.2445 93.1507 53.3768C92.8004 53.4013 92.5038 53.3171 92.3974 53.2628L91.4502 53.6576C91.3456 53.334 91.0516 52.9829 90.6468 53.1138C90.1589 53.2714 89.5102 53.4811 89.5325 54.1C89.5852 54.2631 89.7434 54.4779 89.8532 54.5339L89.9578 54.8575L89.9301 55.0466L89.8756 55.1528L89.7951 55.1788L89.368 54.6907L89.5073 54.2883C89.3742 54.1512 89.3482 54.0709 89.2964 53.9104C89.2445 53.7499 89.1373 53.6931 89.0854 53.5325L88.979 53.4783L88.7351 53.5571L88.3518 54.0384L88.0274 54.1432L87.9997 54.3323C87.9192 54.3583 87.9452 54.4386 87.972 54.5214C87.972 54.5214 87.8915 54.5474 87.9174 54.6276L87.8111 54.5734L87.4867 54.6782C87.3759 54.8941 87.3733 55.1609 87.3715 55.4302L87.5876 55.5405L87.2355 55.8344L87.2078 56.0235L87.0166 56.2654L87.0425 56.3457L86.962 56.3717L87.0926 56.7755L87.0121 56.8015C86.8271 56.5039 86.4786 56.2592 85.9121 56.1735L85.6681 56.2523L85.7208 56.4154C85.7735 56.5785 85.963 56.6059 86.1498 56.6342C86.366 56.7444 86.4983 56.879 86.6047 56.9332C86.4983 56.879 86.3608 57.012 86.3867 57.0923L86.4394 57.2554L87.1623 57.8252L87.6066 59.1998L87.8746 59.4706C87.8417 59.9273 87.8121 60.3857 87.646 60.7053L87.6201 60.6251L87.4825 60.7582L87.428 60.8644L87.4521 61.214L87.5585 61.2683L87.5844 61.3485L87.3682 61.2383L87.4451 61.751L87.093 62.0449C86.9554 62.178 86.9017 62.2868 87.06 62.5016C87.1127 62.6647 87.0582 62.7709 86.9206 62.904L87.0538 63.0411L86.9689 63.3373C86.9949 63.4175 87.0216 63.5004 86.9412 63.5264L87.0458 63.85L87.3094 64.3909L87.4988 64.4183L87.6364 64.2853L87.6055 63.9236Z" fill="white" stroke="white" stroke-width="0.30303" mask="url(#path-4-inside-1_3_10)"/>
<rect x="-0.171535" y="0.271812" width="26.2557" height="4.45455" rx="2.22727" transform="matrix(0.975362 -0.220609 -0.220609 -0.975362 46.9382 48.3591)" fill="url(#paint2_linear_3_10)" stroke="#101218" stroke-width="0.454545"/>
<rect x="0.032846" y="0.319729" width="30.891" height="4.45455" rx="2.22727" transform="matrix(0.631144 -0.775666 -0.775666 -0.631144 73.2124 41.6801)" fill="url(#paint3_linear_3_10)" stroke="#101218" stroke-width="0.454545"/>
<circle cx="2.72727" cy="2.72727" r="2.72727" transform="matrix(0.31454 0.949244 0.949244 -0.31454 68.1818 37.8788)" fill="white"/>
<circle cx="2.72727" cy="2.72727" r="2.72727" transform="matrix(0.31454 0.949244 0.949244 -0.31454 68.1818 37.8788)" fill="#101218"/>
</g>
<path d="M124.975 27.8736L125.552 30.4038V52.9091H120.181V27.8736H124.975ZM138.825 30.6257C139.328 31.1288 139.712 31.7206 139.979 32.4013C140.275 33.0523 140.482 33.7478 140.6 34.4876C140.748 35.1978 140.837 35.9228 140.866 36.6626C140.896 37.4025 140.911 38.1275 140.911 38.8377V52.0213V52.9091H135.495V39.2816C135.495 38.2755 135.451 37.3137 135.362 36.3963C135.273 35.4789 135.066 34.6651 134.741 33.9549C134.415 33.2447 133.971 32.6972 133.409 32.3125C132.847 31.8982 132.063 31.6911 131.056 31.6911C130.642 31.6911 130.08 31.765 129.37 31.913C128.689 32.0314 128.023 32.2385 127.372 32.5344V29.1165C128.171 28.7022 129.029 28.3471 129.947 28.0511C130.894 27.7552 131.811 27.6072 132.699 27.6072C134.031 27.6072 135.155 27.8884 136.072 28.4506C136.99 28.9833 137.907 29.7083 138.825 30.6257ZM159.954 27.6516C161.552 27.7996 162.987 28.2287 164.26 28.9389C165.562 29.6491 166.671 30.5665 167.589 31.6911C168.506 32.8156 169.202 34.1029 169.675 35.5529C170.178 37.003 170.43 38.5122 170.43 40.0806C170.43 40.7908 170.385 41.5011 170.297 42.2113H155.071V38.305H165.325C165.325 37.5356 165.192 36.7958 164.925 36.0856C164.689 35.3754 164.319 34.7243 163.816 34.1325C163.342 33.511 162.78 32.9931 162.129 32.5788C161.478 32.1645 160.753 31.913 159.954 31.8242V27.6516ZM159.776 48.7365C160.102 48.7365 160.501 48.7069 160.975 48.6477C161.478 48.559 161.996 48.4258 162.528 48.2482C163.091 48.0411 163.638 47.7895 164.171 47.4936C164.733 47.1977 165.221 46.8426 165.636 46.4283L167.589 49.4023C166.612 50.6156 165.473 51.533 164.171 52.1545C162.869 52.7759 161.212 53.0866 159.199 53.0866C157.572 53.0866 156.048 52.7611 154.627 52.1101C153.207 51.4295 151.993 50.5121 150.987 49.358C149.981 48.2038 149.182 46.8574 148.59 45.3185C147.998 43.7797 147.702 42.1225 147.702 40.3469C147.702 38.6602 147.969 37.0621 148.501 35.5529C149.064 34.0437 149.818 32.7268 150.765 31.6023C151.712 30.4482 152.807 29.516 154.05 28.8058C155.323 28.0955 156.684 27.696 158.134 27.6072V31.8686C157.039 32.0758 156.136 32.5197 155.426 33.2003C154.716 33.8809 154.154 34.6651 153.739 35.5529C153.355 36.4111 153.074 37.2989 152.896 38.2163C152.748 39.1336 152.674 39.9179 152.674 40.5689C152.674 41.723 152.807 42.8032 153.074 43.8093C153.369 44.7859 153.813 45.6441 154.405 46.3839C154.997 47.0941 155.722 47.6712 156.58 48.1151C157.468 48.5294 158.533 48.7365 159.776 48.7365ZM183.125 45.2741C183.125 46.2803 183.258 47.0793 183.525 47.6712C183.791 48.2334 184.161 48.6625 184.634 48.9585C185.108 49.2248 185.64 49.4023 186.232 49.4911C186.854 49.5799 187.52 49.6243 188.23 49.6243V52.9091C187.845 52.9683 187.446 53.0127 187.031 53.0423C186.706 53.0719 186.321 53.0866 185.877 53.0866C185.433 53.1162 184.989 53.131 184.545 53.131C184.102 53.131 183.658 53.1162 183.214 53.0866C182.77 53.0571 182.37 53.0127 182.015 52.9535C181.009 52.7463 180.225 52.3024 179.663 51.6218C179.1 50.9412 178.671 50.1866 178.375 49.358C178.079 48.4998 177.887 47.6712 177.798 46.8722C177.739 46.0732 177.71 45.4517 177.71 45.0078V44.4751V18.4187H183.125V45.2741ZM217.837 27.8736C216.21 32.2237 214.76 36.0856 213.487 39.4592C212.215 42.8032 211.105 45.7476 210.158 48.2926C209.211 50.808 208.368 52.9387 207.628 54.6847C206.918 56.4306 206.252 57.8807 205.63 59.0348C205.038 60.2185 204.476 61.1359 203.944 61.7869C203.411 62.4676 202.863 62.9854 202.301 63.3406C201.739 63.6957 201.117 63.9028 200.437 63.962C199.786 64.0508 199.031 64.0952 198.173 64.0952C197.907 64.0952 197.596 64.0508 197.241 63.962C196.886 63.9028 196.531 63.814 196.175 63.6957C195.85 63.6069 195.554 63.5033 195.288 63.3849C195.021 63.2962 194.844 63.237 194.755 63.2074C194.873 62.6747 194.992 62.1716 195.11 61.6982C195.199 61.2839 195.288 60.8844 195.376 60.4996C195.495 60.1445 195.584 59.893 195.643 59.745C195.88 59.745 196.235 59.819 196.708 59.967C197.211 60.1149 197.581 60.1889 197.818 60.1889C198.291 60.1889 198.706 60.1593 199.061 60.1001C199.445 60.0706 199.786 59.9374 200.082 59.7006C200.378 59.4935 200.659 59.168 200.925 58.7241C201.191 58.3098 201.487 57.7031 201.813 56.9041L203.5 52.9091L212.422 27.8736H217.837ZM202.567 50.5565L193.246 27.8736H198.617L205.009 44.6971L204.387 46.2063L202.567 50.5565Z" fill="white"/>
<defs>
<linearGradient id="paint0_linear_3_10" x1="24.282" y1="16" x2="106.565" y2="33.6207" gradientUnits="userSpaceOnUse">
<stop stop-color="#3D7DCF"/>
<stop offset="1" stop-color="#D6E36B"/>
</linearGradient>
<linearGradient id="paint1_linear_3_10" x1="24.282" y1="16" x2="106.565" y2="33.6207" gradientUnits="userSpaceOnUse">
<stop stop-color="#3D7DCF"/>
<stop offset="1" stop-color="#D6E36B"/>
</linearGradient>
<linearGradient id="paint2_linear_3_10" x1="-2.43055" y1="0.8" x2="7.11361" y2="13.9834" gradientUnits="userSpaceOnUse">
<stop stop-color="#3D7DCF"/>
<stop offset="1" stop-color="#D6E36B"/>
</linearGradient>
<linearGradient id="paint3_linear_3_10" x1="-2.86721" y1="0.8" x2="6.09019" y2="15.3958" gradientUnits="userSpaceOnUse">
<stop stop-color="#3D7DCF"/>
<stop offset="1" stop-color="#D6E36B"/>
</linearGradient>
<clipPath id="clip0_3_10">
<rect width="80" height="80" fill="white" transform="translate(31.8182)"/>
</clipPath>
</defs>
</svg>
